<?xml version="1.0" encoding="UTF-8" standalone="no"?><!DOCTYPE svg PUBLIC "-//W3C//DTD SVG 1.1//EN" "http://www.w3.org/Graphics/SVG/1.1/DTD/svg11.dtd"><svg width="100%" height="100%" viewBox="0 0 72 72" version="1.1" xmlns="http://www.w3.org/2000/svg" xmlns:xlink="http://www.w3.org/1999/xlink" xml:space="preserve" xmlns:serif="http://www.serif.com/" style="fill-rule:evenodd;clip-rule:evenodd;stroke-linejoin:round;stroke-miterlimit:2;"><g id="Log-out-obsolete"><path d="M69.6,0c0.637,-0 1.247,0.253 1.697,0.703c0.45,0.45 0.703,1.061 0.703,1.697l-0,12.28c0,0.637 -0.253,1.247 -0.703,1.697c-0.45,0.45 -1.061,0.703 -1.697,0.703l-69.6,0l-0,-14.68c-0,-0.637 0.253,-1.247 0.703,-1.697c0.45,-0.45 1.061,-0.703 1.697,-0.703l67.2,-0Z" style="fill:#e7bc22;fill-opacity:0.99;"/><path d="M54.39,23.011c0.637,-0 1.247,0.253 1.697,0.703c0.45,0.45 0.703,1.061 0.703,1.697c0,4.871 0,15.869 0,20.74c0,0.637 -0.253,1.247 -0.703,1.697c-0.45,0.45 -1.061,0.703 -1.697,0.703c-6.339,-0 -23.476,-0 -29.814,-0c-0.637,0 -1.247,-0.253 -1.697,-0.703c-0.45,-0.45 -0.703,-1.061 -0.703,-1.697c-0,-4.871 -0,-15.869 -0,-20.74c-0,-0.637 0.253,-1.247 0.703,-1.697c0.45,-0.45 1.061,-0.703 1.697,-0.703c6.339,0 23.476,0 29.814,0Z" style="fill:#e7bc22;fill-opacity:0.99;"/><path d="M69.6,54.92c0.637,-0 1.247,0.253 1.697,0.703c0.45,0.45 0.703,1.061 0.703,1.697l-0,12.28c0,0.637 -0.253,1.247 -0.703,1.697c-0.45,0.45 -1.061,0.703 -1.697,0.703l-67.2,0c-0.637,0 -1.247,-0.253 -1.697,-0.703c-0.45,-0.45 -0.703,-1.061 -0.703,-1.697l0,-14.68l69.6,0Z" style="fill:#e7bc22;fill-opacity:0.99;"/><rect x="-0" y="14.506" width="16.093" height="44.047" style="fill:#e7bc22;fill-opacity:0.99;"/><path d="M64.228,32.321c1.787,1.961 1.787,4.96 -0,6.921c-2.143,2.351 -5,5.485 -7.331,8.041c-0.668,0.732 -1.717,0.979 -2.641,0.621c-0.924,-0.358 -1.533,-1.247 -1.533,-2.238l-0,-19.769c0,-0.991 0.609,-1.88 1.533,-2.238c0.924,-0.358 1.973,-0.111 2.641,0.621c2.331,2.557 5.188,5.691 7.331,8.041Z" style="fill:#e7bc22;fill-opacity:0.99;"/></g></svg>